<svg id="Capa_1" enable-background="new 0 0 512 512" height="512" viewBox="0 0 512 512" width="512" xmlns="http://www.w3.org/2000/svg"><g><path d="m422 256c-8.928 0-17.553 1.313-25.701 3.745l-50.054-133.478c-1.753-4.674-1.127-9.708 1.716-13.81 2.843-4.103 7.337-6.456 12.329-6.456h76.71v-30.001h-76.71c-14.755 0-28.583 7.24-36.987 19.369-8.405 12.128-10.329 27.616-5.148 41.432l22.188 59.167-135.073.031-14.999-29.999h20.729v-30h-60c-16.542 0-30-13.458-30-30h-30c0 33.084 26.916 60 60 60h5.729l21.67 43.34-44.392 58.179c-13.019-7.33-28.032-11.519-44.007-11.519-49.626 0-90 40.374-90 90s40.374 90 90 90 90-40.374 90-90h33.58c6.192 17.459 22.865 30 42.42 30 1.881 0 3.731-.13 5.552-.355l15.177 30.355h39.271v-30h-20.729l-6.896-13.792c7.808-8.098 12.625-19.098 12.625-31.208 0-7.979-2.097-15.474-5.754-21.979l61.45-69.445 12.576 33.535c-22.566 16.369-37.272 42.942-37.272 72.889 0 49.626 40.374 90 90 90s90-40.374 90-90-40.374-90-90-90zm-93.323-30.03-55.974 63.257c-5.169-2.074-10.802-3.227-16.703-3.227-1.881 0-3.731.13-5.552.355l-30.18-60.36zm-238.677 180.03c-33.084 0-60-26.916-60-60s26.916-60 60-60 60 26.916 60 60-26.916 60-60 60zm84.852-90c-3.905-11.013-9.896-21.046-17.498-29.623l35.983-47.16 30.288 60.576c-4.418 4.581-7.876 10.09-10.045 16.207zm66.148 15c0-8.271 6.729-15 15-15s15 6.729 15 15-6.729 15-15 15-15-6.729-15-15zm181 75c-33.084 0-60-26.916-60-60s26.916-60 60-60 60 26.916 60 60-26.916 60-60 60z"/><path d="m75 331h30v30h-30z"/><path d="m407 331h30v30h-30z"/></g></svg>